<svg width="1280" height="720" xmlns="http://www.w3.org/2000/svg" xmlns:xlink="http://www.w3.org/1999/xlink" overflow="hidden"><defs><clipPath id="clip0"><rect x="0" y="0" width="1280" height="720"/></clipPath><clipPath id="clip1"><rect x="818" y="136" width="96" height="96"/></clipPath><clipPath id="clip2"><rect x="818" y="136" width="96" height="96"/></clipPath><clipPath id="clip3"><rect x="818" y="136" width="96" height="96"/></clipPath><clipPath id="clip4"><rect x="897" y="279" width="96" height="96"/></clipPath><clipPath id="clip5"><rect x="897" y="279" width="96" height="96"/></clipPath><clipPath id="clip6"><rect x="897" y="279" width="96" height="96"/></clipPath><clipPath id="clip7"><path d="M752.628 234.1 788.78 190.753 829.31 224.556 793.158 267.903Z" fill-rule="evenodd" clip-rule="evenodd"/></clipPath><clipPath id="clip8"><path d="M752.628 234.1 788.78 190.753 829.31 224.556 793.158 267.903Z" fill-rule="evenodd" clip-rule="evenodd"/></clipPath><clipPath id="clip9"><path d="M752.628 234.1 788.78 190.753 829.31 224.556 793.158 267.903Z" fill-rule="evenodd" clip-rule="evenodd"/></clipPath><clipPath id="clip10"><path d="M818.036 278.976 874.408 276.102 877.096 328.81 820.724 331.684Z" fill-rule="evenodd" clip-rule="evenodd"/></clipPath><clipPath id="clip11"><path d="M818.036 278.976 874.408 276.102 877.096 328.81 820.724 331.684Z" fill-rule="evenodd" clip-rule="evenodd"/></clipPath><clipPath id="clip12"><path d="M818.036 278.976 874.408 276.102 877.096 328.81 820.724 331.684Z" fill-rule="evenodd" clip-rule="evenodd"/></clipPath><clipPath id="clip13"><rect x="559" y="95" width="96" height="96"/></clipPath><clipPath id="clip14"><rect x="559" y="95" width="96" height="96"/></clipPath><clipPath id="clip15"><rect x="559" y="95" width="96" height="96"/></clipPath><clipPath id="clip16"><rect x="366" y="442" width="96" height="96"/></clipPath><clipPath id="clip17"><rect x="366" y="442" width="96" height="96"/></clipPath><clipPath id="clip18"><rect x="366" y="442" width="96" height="96"/></clipPath><clipPath id="clip19"><rect x="753" y="447" width="96" height="96"/></clipPath><clipPath id="clip20"><rect x="753" y="447" width="96" height="96"/></clipPath><clipPath id="clip21"><rect x="753" y="447" width="96" height="96"/></clipPath><clipPath id="clip22"><rect x="349" y="133" width="96" height="96"/></clipPath><clipPath id="clip23"><rect x="349" y="133" width="96" height="96"/></clipPath><clipPath id="clip24"><rect x="349" y="133" width="96" height="96"/></clipPath><clipPath id="clip25"><rect x="304" y="263" width="96" height="96"/></clipPath><clipPath id="clip26"><rect x="304" y="263" width="96" height="96"/></clipPath><clipPath id="clip27"><rect x="304" y="263" width="96" height="96"/></clipPath><clipPath id="clip28"><rect x="577" y="495" width="96" height="96"/></clipPath><clipPath id="clip29"><rect x="577" y="495" width="96" height="96"/></clipPath><clipPath id="clip30"><rect x="577" y="495" width="96" height="96"/></clipPath><clipPath id="clip31"><path d="M417.079 423.64 457.082 383.819 494.316 421.222 454.313 461.044Z" fill-rule="evenodd" clip-rule="evenodd"/></clipPath><clipPath id="clip32"><path d="M417.079 423.64 457.082 383.819 494.316 421.222 454.313 461.044Z" fill-rule="evenodd" clip-rule="evenodd"/></clipPath><clipPath id="clip33"><path d="M417.079 423.64 457.082 383.819 494.316 421.222 454.313 461.044Z" fill-rule="evenodd" clip-rule="evenodd"/></clipPath></defs><g clip-path="url(#clip0)"><rect x="0" y="0" width="1280" height="720" fill="#FFFFFF"/><path d="M494.639 314.377C490.496 293.771 511.826 274.795 542.28 271.992 554.62 270.856 567.167 272.554 577.913 276.814 589.299 262.292 615.906 256.772 637.341 264.486 641.089 265.835 644.529 267.545 647.554 269.562 656.422 257.524 678.022 252.633 695.799 258.638 700.719 260.3 705.011 262.704 708.346 265.665 722.639 254.281 747.896 252.874 764.758 262.524 771.846 266.579 776.622 272.173 778.269 278.346 801.688 282.67 815.504 299.048 809.127 314.927 808.591 316.262 807.919 317.57 807.115 318.842 825.897 335.388 821.299 359.104 796.845 371.812 789.232 375.768 780.241 378.329 770.74 379.249 770.528 397.05 749.014 411.365 722.686 411.222 713.89 411.174 705.285 409.482 697.823 406.332 688.918 426.29 657.856 437.57 628.445 431.527 616.119 428.995 605.469 423.639 598.311 416.374 568.198 428.665 529.111 422.054 511.01 401.606 510.781 401.349 510.557 401.089 510.337 400.829 490.629 402.39 472.777 392.873 470.464 379.573 469.231 372.484 472.689 365.388 479.917 360.177 462.853 353.379 457.121 338.457 467.114 326.849 472.879 320.152 482.991 315.724 494.339 314.928Z" stroke="#41719C" stroke-width="1.33333" stroke-miterlimit="8" fill="#5B9BD5" fill-rule="evenodd"/><path d="M501.174 362.753C493.889 363.139 486.605 362 480.299 359.488M519.592 398.489C516.662 399.278 513.592 399.804 510.459 400.052M598.291 415.66C596.088 413.424 594.243 411.034 592.788 408.531M700.056 397.883C699.732 400.535 698.995 403.158 697.859 405.705M743.748 349.548C760.266 354.988 770.69 366.362 770.542 378.784M806.947 318.409C804.271 322.639 800.188 326.391 795.016 329.372M778.318 277.732C778.774 279.44 778.985 281.174 778.948 282.909M702.124 271.692C703.679 269.304 705.737 267.08 708.236 265.089M644.958 274.839C645.593 272.865 646.587 270.952 647.919 269.144M577.87 276.773C581.758 278.314 585.355 280.169 588.582 282.297M496.51 320.191C495.661 318.29 495.036 316.346 494.64 314.379" stroke="#41719C" stroke-width="1.33333" stroke-miterlimit="8" fill="none" fill-rule="evenodd"/><text fill="#FFFFFF" font-family="Calibri,Calibri_MSFontService,sans-serif" font-weight="400" font-size="24" transform="translate(572.51 332)">LAN/WLAN<tspan font-size="24" x="-38.66" y="29">via UDP Broadcasts</tspan></text><g clip-path="url(#clip1)"><g clip-path="url(#clip2)"><g clip-path="url(#clip3)"><path d="M890 189C885.029 189 881 193.029 881 198 881 202.971 885.029 207 890 207 894.971 207 899 202.971 899 198 898.995 193.031 894.969 189.005 890 189ZM890 205C886.134 205 883 201.866 883 198 883 194.134 886.134 191 890 191 893.866 191 897 194.134 897 198 897 201.866 893.866 205 890 205Z" fill="#ED7D31"/><path d="M852.811 196.017C852.934 196.671 852.997 197.335 853 198L853 198.017 879.006 198.017 879.006 198C879.009 197.335 879.072 196.671 879.195 196.017Z" fill="#ED7D31"/><path d="M900 180C904.418 180 908 183.582 908 188L908 194.016C908 195.121 907.105 196.016 906 196.016L900.813 196.016C900.935 196.67 900.998 197.334 901 198L901 198.017 906 198.017C908.206 198.01 909.993 196.223 910 194.017L910 188.017C909.985 182.494 905.513 178.019 899.99 178L891.7 178C890.637 178.034 889.613 177.599 888.9 176.811L876.3 164.311C874.787 162.809 872.732 161.98 870.6 162.011L854.037 162.011C854.024 162.011 854.013 162.004 854 162.004 853.987 162.004 853.977 162.011 853.964 162.011L841.3 162.011C839.172 161.999 837.124 162.825 835.6 164.311L823.2 176.811C822.423 177.574 821.989 178.621 822 179.711L822 190.011C822.014 194.423 825.588 197.997 830 198.011L831 198.011 831 198C831.003 197.335 831.065 196.671 831.188 196.017L830 196.017C826.686 196.017 824 193.331 824 190.017L824 180ZM874.894 165.728 887.262 178 855 178 855 164.007 870.6 164.007C872.206 163.974 873.755 164.596 874.894 165.728ZM837.016 165.722C838.163 164.609 839.702 163.993 841.3 164.007L853 164.007 853 178 824.863 178C824.849 178 824.846 177.992 824.855 177.983Z" fill="#ED7D31"/><path d="M842 189C837.029 189 833 193.029 833 198 833 202.971 837.029 207 842 207 846.971 207 851 202.971 851 198 850.995 193.031 846.969 189.005 842 189ZM842 205C838.134 205 835 201.866 835 198 835 194.134 838.134 191 842 191 845.866 191 849 194.134 849 198 849 201.866 845.866 205 842 205Z" fill="#ED7D31"/></g></g></g><path d="M8.0902 6.20873 43.7929 47.0116 40.7826 49.6456 5.0799 8.84275ZM3.38662 12.9819 0 0 12.4175 5.07987ZM45.4861 42.8724 48.8728 55.8544 36.4552 50.7745Z" transform="matrix(1 0 0 -1 780 269.854)"/><path d="M828 325 887.347 325 887.347 329 828 329ZM830 333 818 327 830 321ZM885.347 321 897.347 327 885.347 333Z"/><g clip-path="url(#clip4)"><g clip-path="url(#clip5)"><g clip-path="url(#clip6)"><path d="M969 332C964.029 332 960 336.029 960 341 960 345.971 964.029 350 969 350 973.971 350 978 345.971 978 341 977.995 336.031 973.969 332.005 969 332ZM969 348C965.134 348 962 344.866 962 341 962 337.134 965.134 334 969 334 972.866 334 976 337.134 976 341 976 344.866 972.866 348 969 348Z" fill="#ED7D31"/><path d="M931.811 339.017C931.934 339.671 931.997 340.335 932 341L932 341.017 958.006 341.017 958.006 341C958.009 340.335 958.072 339.671 958.195 339.017Z" fill="#ED7D31"/><path d="M979 323C983.418 323 987 326.582 987 331L987 337.016C987 338.121 986.105 339.016 985 339.016L979.813 339.016C979.935 339.67 979.998 340.334 980 341L980 341.017 985 341.017C987.206 341.01 988.993 339.223 989 337.017L989 331.017C988.985 325.494 984.513 321.019 978.99 321L970.7 321C969.637 321.034 968.613 320.599 967.9 319.811L955.3 307.311C953.787 305.809 951.732 304.98 949.6 305.011L933.037 305.011C933.024 305.011 933.013 305.004 933 305.004 932.987 305.004 932.977 305.011 932.964 305.011L920.3 305.011C918.172 304.999 916.124 305.825 914.6 307.311L902.2 319.811C901.423 320.574 900.989 321.621 901 322.711L901 333.011C901.014 337.423 904.588 340.997 909 341.011L910 341.011 910 341C910.003 340.335 910.065 339.671 910.188 339.017L909 339.017C905.686 339.017 903 336.331 903 333.017L903 323ZM953.894 308.728 966.262 321 934 321 934 307.007 949.6 307.007C951.206 306.974 952.755 307.595 953.894 308.728ZM916.016 308.722C917.163 307.609 918.702 306.993 920.3 307.007L932 307.007 932 321 903.863 321C903.849 321 903.846 320.992 903.855 320.983Z" fill="#ED7D31"/><path d="M921 332C916.029 332 912 336.029 912 341 912 345.971 916.029 350 921 350 925.971 350 930 345.971 930 341 929.995 336.031 925.969 332.005 921 332ZM921 348C917.134 348 914 344.866 914 341 914 337.134 917.134 334 921 334 924.866 334 928 337.134 928 341 928 344.866 924.866 348 921 348Z" fill="#ED7D31"/></g></g></g><g clip-path="url(#clip7)"><g clip-path="url(#clip8)"><g clip-path="url(#clip9)"><path d="M3.84828 23.6394 4.94779 23.6394 4.94779 29.137 3.84828 29.137Z" stroke="#7F7F7F" stroke-width="0.549754" transform="matrix(0.685016 -0.821343 0.767962 0.640495 752.628 234.1)"/><path d="M9.34582 21.4404 10.4453 21.4404 10.4453 31.336 9.34582 31.336Z" stroke="#7F7F7F" stroke-width="0.549754" transform="matrix(0.685016 -0.821343 0.767962 0.640495 752.628 234.1)"/><path d="M14.8434 16.4926 15.9429 16.4926 15.9429 36.2838 14.8434 36.2838Z" stroke="#7F7F7F" stroke-width="0.549754" transform="matrix(0.685016 -0.821343 0.767962 0.640495 752.628 234.1)"/><path d="M20.3409 10.9951 21.4404 10.9951 21.4404 41.7813 20.3409 41.7813Z" stroke="#7F7F7F" stroke-width="0.549754" transform="matrix(0.685016 -0.821343 0.767962 0.640495 752.628 234.1)"/><path d="M25.8384 18.6916 26.9379 18.6916 26.9379 34.0847 25.8384 34.0847Z" stroke="#7F7F7F" stroke-width="0.549754" transform="matrix(0.685016 -0.821343 0.767962 0.640495 752.628 234.1)"/><path d="M31.336 21.4404 32.4355 21.4404 32.4355 31.336 31.336 31.336Z" stroke="#7F7F7F" stroke-width="0.549754" transform="matrix(0.685016 -0.821343 0.767962 0.640495 752.628 234.1)"/><path d="M36.8335 23.6394 37.933 23.6394 37.933 29.137 36.8335 29.137Z" stroke="#7F7F7F" stroke-width="0.549754" transform="matrix(0.685016 -0.821343 0.767962 0.640495 752.628 234.1)"/><path d="M42.3311 21.4404 43.4306 21.4404 43.4306 31.336 42.3311 31.336Z" stroke="#7F7F7F" stroke-width="0.549754" transform="matrix(0.685016 -0.821343 0.767962 0.640495 752.628 234.1)"/><path d="M47.8286 23.6394 48.9281 23.6394 48.9281 29.137 47.8286 29.137Z" stroke="#7F7F7F" stroke-width="0.549754" transform="matrix(0.685016 -0.821343 0.767962 0.640495 752.628 234.1)"/></g></g></g><g clip-path="url(#clip10)"><g clip-path="url(#clip11)"><g clip-path="url(#clip12)"><path d="M3.84828 23.6394 4.94779 23.6394 4.94779 29.137 3.84828 29.137Z" stroke="#7F7F7F" stroke-width="0.549754" transform="matrix(1.06812 -0.054466 0.0509262 0.998702 818.036 278.976)"/><path d="M9.34582 21.4404 10.4453 21.4404 10.4453 31.336 9.34582 31.336Z" stroke="#7F7F7F" stroke-width="0.549754" transform="matrix(1.06812 -0.054466 0.0509262 0.998702 818.036 278.976)"/><path d="M14.8434 16.4926 15.9429 16.4926 15.9429 36.2838 14.8434 36.2838Z" stroke="#7F7F7F" stroke-width="0.549754" transform="matrix(1.06812 -0.054466 0.0509262 0.998702 818.036 278.976)"/><path d="M20.3409 10.9951 21.4404 10.9951 21.4404 41.7813 20.3409 41.7813Z" stroke="#7F7F7F" stroke-width="0.549754" transform="matrix(1.06812 -0.054466 0.0509262 0.998702 818.036 278.976)"/><path d="M25.8384 18.6916 26.9379 18.6916 26.9379 34.0847 25.8384 34.0847Z" stroke="#7F7F7F" stroke-width="0.549754" transform="matrix(1.06812 -0.054466 0.0509262 0.998702 818.036 278.976)"/><path d="M31.336 21.4404 32.4355 21.4404 32.4355 31.336 31.336 31.336Z" stroke="#7F7F7F" stroke-width="0.549754" transform="matrix(1.06812 -0.054466 0.0509262 0.998702 818.036 278.976)"/><path d="M36.8335 23.6394 37.933 23.6394 37.933 29.137 36.8335 29.137Z" stroke="#7F7F7F" stroke-width="0.549754" transform="matrix(1.06812 -0.054466 0.0509262 0.998702 818.036 278.976)"/><path d="M42.3311 21.4404 43.4306 21.4404 43.4306 31.336 42.3311 31.336Z" stroke="#7F7F7F" stroke-width="0.549754" transform="matrix(1.06812 -0.054466 0.0509262 0.998702 818.036 278.976)"/><path d="M47.8286 23.6394 48.9281 23.6394 48.9281 29.137 47.8286 29.137Z" stroke="#7F7F7F" stroke-width="0.549754" transform="matrix(1.06812 -0.054466 0.0509262 0.998702 818.036 278.976)"/></g></g></g><g clip-path="url(#clip13)"><g clip-path="url(#clip14)"><g clip-path="url(#clip15)"><path d="M635 155 579 155 579 121 635 121 635 155ZM641 119C641 116.8 639.2 115 637 115L577 115C574.8 115 573 116.8 573 119L573 161 641 161 641 119Z" fill="#BF9000"/><path d="M613 165 613 166C613 166.6 612.6 167 612 167L602 167C601.4 167 601 166.6 601 166L601 165 561 165 561 167C561 169.2 562.8 171 565 171L649 171C651.2 171 653 169.2 653 167L653 165 613 165Z" fill="#BF9000"/></g></g></g><path d="M2.00002 10 2.00009 59.0406-1.99991 59.0406-1.99998 10ZM-5.99998 12 0 0 6.00002 12ZM6.00009 57.0406 0.000104987 69.0406-5.99991 57.0406Z" transform="matrix(1 0 0 -1 607 253.041)"/><g clip-path="url(#clip16)"><g clip-path="url(#clip17)"><g clip-path="url(#clip18)"><path d="M442 502 386 502 386 468 442 468 442 502ZM448 466C448 463.8 446.2 462 444 462L384 462C381.8 462 380 463.8 380 466L380 508 448 508 448 466Z" fill="#BF9000"/><path d="M420 512 420 513C420 513.6 419.6 514 419 514L409 514C408.4 514 408 513.6 408 513L408 512 368 512 368 514C368 516.2 369.8 518 372 518L456 518C458.2 518 460 516.2 460 514L460 512 420 512Z" fill="#BF9000"/></g></g></g><path d="M9.18765 4.42576 45.9143 32.1319 43.5054 35.3251 6.77869 7.61902ZM5.96636 12.0168 0 0 13.1932 2.43696ZM46.7267 27.7341 52.693 39.7509 39.4998 37.3139Z" transform="matrix(1 0 0 -1 456 454.751)"/><g clip-path="url(#clip19)"><g clip-path="url(#clip20)"><g clip-path="url(#clip21)"><path d="M809 505 761 505 761 473 809 473 809 505ZM811 467 759 467C756.8 467 755 468.8 755 471L755 507C755 509.2 756.8 511 759 511L779 511 779 517 770 517 770 523 800 523 800 517 791 517 791 511 811 511C813.2 511 815 509.2 815 507L815 471C815 468.8 813.2 467 811 467Z" fill="#70AD47"/><path d="M843 477 823 477 823 471 843 471 843 477ZM843 487 823 487 823 481 843 481 843 487ZM833 517C831.3 517 830 515.7 830 514 830 512.3 831.3 511 833 511 834.7 511 836 512.3 836 514 836 515.7 834.7 517 833 517ZM843 467 823 467C820.8 467 819 468.8 819 471L819 519C819 521.2 820.8 523 823 523L843 523C845.2 523 847 521.2 847 519L847 471C847 468.8 845.2 467 843 467Z" fill="#70AD47"/></g></g></g><g clip-path="url(#clip22)"><g clip-path="url(#clip23)"><g clip-path="url(#clip24)"><path d="M405 191 357 191 357 159 405 159 405 191ZM407 153 355 153C352.8 153 351 154.8 351 157L351 193C351 195.2 352.8 197 355 197L375 197 375 203 366 203 366 209 396 209 396 203 387 203 387 197 407 197C409.2 197 411 195.2 411 193L411 157C411 154.8 409.2 153 407 153Z" fill="#70AD47"/><path d="M439 163 419 163 419 157 439 157 439 163ZM439 173 419 173 419 167 439 167 439 173ZM429 203C427.3 203 426 201.7 426 200 426 198.3 427.3 197 429 197 430.7 197 432 198.3 432 200 432 201.7 430.7 203 429 203ZM439 153 419 153C416.8 153 415 154.8 415 157L415 205C415 207.2 416.8 209 419 209L439 209C441.2 209 443 207.2 443 205L443 157C443 154.8 441.2 153 439 153Z" fill="#70AD47"/></g></g></g><g clip-path="url(#clip25)"><g clip-path="url(#clip26)"><g clip-path="url(#clip27)"><path d="M334 279 370 279 370 343 334 343 334 279ZM356 351 348 351C346.9 351 346 350.1 346 349 346 347.9 346.9 347 348 347L356 347C357.1 347 358 347.9 358 349 358 350.1 357.1 351 356 351ZM330 355 374 355C375.1 355 376 354.1 376 353L376 269C376 267.9 375.1 267 374 267L330 267C328.9 267 328 267.9 328 269L328 353C328 354.1 328.9 355 330 355Z" fill="#7030A0"/></g></g></g><g clip-path="url(#clip28)"><g clip-path="url(#clip29)"><g clip-path="url(#clip30)"><path d="M607 511 643 511 643 575 607 575 607 511ZM629 583 621 583C619.9 583 619 582.1 619 581 619 579.9 619.9 579 621 579L629 579C630.1 579 631 579.9 631 581 631 582.1 630.1 583 629 583ZM603 587 647 587C648.1 587 649 586.1 649 585L649 501C649 499.9 648.1 499 647 499L603 499C601.9 499 601 499.9 601 501L601 585C601 586.1 601.9 587 603 587Z" fill="#7030A0"/></g></g></g><path d="M404.052 309.279 452.024 310.615 451.913 314.613 403.94 313.278ZM405.828 317.332 394 311 406.162 305.336ZM450.136 306.561 461.964 312.892 449.802 318.556Z"/><path d="M463.869 220.487 495.003 258.676 491.903 261.203 460.769 223.014ZM458.932 227.092 456 214 468.233 219.509ZM496.84 254.598 499.772 267.69 487.539 262.181Z"/><path d="M735.118 455.041 703.646 423.492 706.478 420.667 737.95 452.216ZM739.369 447.976 743.596 460.709 730.873 456.45ZM702.227 427.733 698 415 710.723 419.258Z"/><path d="M602.49 477.735 589.968 436.152 593.798 434.999 606.32 476.582ZM609.574 473.514 607.289 486.734 598.084 476.974ZM586.715 439.22 589 426 598.205 435.76Z"/><g clip-path="url(#clip31)"><g clip-path="url(#clip32)"><g clip-path="url(#clip33)"><path d="M3.84828 23.6394 4.94779 23.6394 4.94779 29.137 3.84828 29.137Z" stroke="#7F7F7F" stroke-width="0.549754" transform="matrix(0.75797 -0.754541 0.705502 0.708708 417.079 423.64)"/><path d="M9.34582 21.4404 10.4453 21.4404 10.4453 31.336 9.34582 31.336Z" stroke="#7F7F7F" stroke-width="0.549754" transform="matrix(0.75797 -0.754541 0.705502 0.708708 417.079 423.64)"/><path d="M14.8434 16.4926 15.9429 16.4926 15.9429 36.2838 14.8434 36.2838Z" stroke="#7F7F7F" stroke-width="0.549754" transform="matrix(0.75797 -0.754541 0.705502 0.708708 417.079 423.64)"/><path d="M20.3409 10.9951 21.4404 10.9951 21.4404 41.7813 20.3409 41.7813Z" stroke="#7F7F7F" stroke-width="0.549754" transform="matrix(0.75797 -0.754541 0.705502 0.708708 417.079 423.64)"/><path d="M25.8384 18.6916 26.9379 18.6916 26.9379 34.0847 25.8384 34.0847Z" stroke="#7F7F7F" stroke-width="0.549754" transform="matrix(0.75797 -0.754541 0.705502 0.708708 417.079 423.64)"/><path d="M31.336 21.4404 32.4355 21.4404 32.4355 31.336 31.336 31.336Z" stroke="#7F7F7F" stroke-width="0.549754" transform="matrix(0.75797 -0.754541 0.705502 0.708708 417.079 423.64)"/><path d="M36.8335 23.6394 37.933 23.6394 37.933 29.137 36.8335 29.137Z" stroke="#7F7F7F" stroke-width="0.549754" transform="matrix(0.75797 -0.754541 0.705502 0.708708 417.079 423.64)"/><path d="M42.3311 21.4404 43.4306 21.4404 43.4306 31.336 42.3311 31.336Z" stroke="#7F7F7F" stroke-width="0.549754" transform="matrix(0.75797 -0.754541 0.705502 0.708708 417.079 423.64)"/><path d="M47.8286 23.6394 48.9281 23.6394 48.9281 29.137 47.8286 29.137Z" stroke="#7F7F7F" stroke-width="0.549754" transform="matrix(0.75797 -0.754541 0.705502 0.708708 417.079 423.64)"/></g></g></g></g></svg>